<mxfile host="app.diagrams.net" modified="2021-10-24T09:37:45.171Z" agent="5.0 (Windows NT 10.0; Win64; x64) AppleWebKit/537.36 (KHTML, like Gecko) Chrome/95.0.4638.54 Safari/537.36" etag="ot3EmmcbyicoNepF-154" version="15.5.0" type="github">
  <diagram id="StkApZxrwVeQ4PDX8f7p" name="Page-1">
    <mxGraphModel dx="862" dy="1595" grid="0" gridSize="10" guides="1" tooltips="1" connect="1" arrows="1" fold="1" page="0" pageScale="1" pageWidth="827" pageHeight="1169" math="0" shadow="0">
      <root>
        <mxCell id="0" />
        <mxCell id="1" parent="0" />
        <mxCell id="OehUyQWU7BfFM26jKCi--2" value="" style="rounded=0;whiteSpace=wrap;html=1;sketch=0;hachureGap=4;pointerEvents=0;fontFamily=Architects Daughter;fontSource=https%3A%2F%2Ffonts.googleapis.com%2Fcss%3Ffamily%3DArchitects%2BDaughter;fontSize=20;" vertex="1" parent="1">
          <mxGeometry x="280" y="-520" width="240" height="360" as="geometry" />
        </mxCell>
        <mxCell id="OehUyQWU7BfFM26jKCi--3" value="" style="rounded=0;whiteSpace=wrap;html=1;sketch=0;hachureGap=4;pointerEvents=0;fontFamily=Architects Daughter;fontSource=https%3A%2F%2Ffonts.googleapis.com%2Fcss%3Ffamily%3DArchitects%2BDaughter;fontSize=20;fillColor=#cdeb8b;strokeColor=#36393d;" vertex="1" parent="1">
          <mxGeometry x="280" y="-520" width="240" height="100" as="geometry" />
        </mxCell>
        <mxCell id="OehUyQWU7BfFM26jKCi--4" value="메모리" style="text;strokeColor=none;fillColor=none;html=1;align=center;verticalAlign=middle;whiteSpace=wrap;rounded=0;sketch=0;hachureGap=4;pointerEvents=0;fontFamily=Architects Daughter;fontSource=https%3A%2F%2Ffonts.googleapis.com%2Fcss%3Ffamily%3DArchitects%2BDaughter;fontSize=20;" vertex="1" parent="1">
          <mxGeometry x="360" y="-550" width="80" height="30" as="geometry" />
        </mxCell>
        <mxCell id="OehUyQWU7BfFM26jKCi--5" value="적재 시작 주소" style="text;strokeColor=none;fillColor=default;html=1;align=center;verticalAlign=middle;whiteSpace=wrap;rounded=0;sketch=0;hachureGap=4;pointerEvents=0;fontFamily=Architects Daughter;fontSource=https%3A%2F%2Ffonts.googleapis.com%2Fcss%3Ffamily%3DArchitects%2BDaughter;fontSize=20;" vertex="1" parent="1">
          <mxGeometry x="100" y="-560" width="140" height="40" as="geometry" />
        </mxCell>
        <mxCell id="OehUyQWU7BfFM26jKCi--6" value="" style="edgeStyle=none;orthogonalLoop=1;jettySize=auto;html=1;rounded=0;sketch=1;hachureGap=4;fontFamily=Architects Daughter;fontSource=https%3A%2F%2Ffonts.googleapis.com%2Fcss%3Ffamily%3DArchitects%2BDaughter;fontSize=16;endArrow=open;startSize=14;endSize=14;sourcePerimeterSpacing=8;targetPerimeterSpacing=8;curved=1;" edge="1" parent="1">
          <mxGeometry width="120" relative="1" as="geometry">
            <mxPoint x="230" y="-530" as="sourcePoint" />
            <mxPoint x="270" y="-510" as="targetPoint" />
            <Array as="points" />
          </mxGeometry>
        </mxCell>
        <mxCell id="OehUyQWU7BfFM26jKCi--8" value="높은 주소를 가짐" style="text;html=1;align=center;verticalAlign=middle;whiteSpace=wrap;rounded=0;sketch=0;hachureGap=4;pointerEvents=0;fontFamily=Architects Daughter;fontSource=https%3A%2F%2Ffonts.googleapis.com%2Fcss%3Ffamily%3DArchitects%2BDaughter;fontSize=20;rotation=-90;fillColor=default;" vertex="1" parent="1">
          <mxGeometry x="160" y="-260" width="170" height="30" as="geometry" />
        </mxCell>
        <mxCell id="OehUyQWU7BfFM26jKCi--9" value="" style="edgeStyle=none;orthogonalLoop=1;jettySize=auto;html=1;rounded=0;sketch=1;hachureGap=4;fontFamily=Architects Daughter;fontSource=https%3A%2F%2Ffonts.googleapis.com%2Fcss%3Ffamily%3DArchitects%2BDaughter;fontSize=16;endArrow=open;startSize=14;endSize=14;sourcePerimeterSpacing=8;targetPerimeterSpacing=8;curved=1;" edge="1" parent="1">
          <mxGeometry width="120" relative="1" as="geometry">
            <mxPoint x="270" y="-330" as="sourcePoint" />
            <mxPoint x="270" y="-160" as="targetPoint" />
            <Array as="points" />
          </mxGeometry>
        </mxCell>
        <mxCell id="OehUyQWU7BfFM26jKCi--10" value="" style="edgeStyle=none;orthogonalLoop=1;jettySize=auto;html=1;rounded=0;sketch=0;hachureGap=4;fontFamily=Architects Daughter;fontSource=https%3A%2F%2Ffonts.googleapis.com%2Fcss%3Ffamily%3DArchitects%2BDaughter;fontSize=16;endArrow=none;startSize=14;endSize=14;sourcePerimeterSpacing=8;targetPerimeterSpacing=8;curved=1;strokeColor=#36393d;endFill=0;fillColor=#cdeb8b;" edge="1" parent="1">
          <mxGeometry width="120" relative="1" as="geometry">
            <mxPoint x="280" y="-500" as="sourcePoint" />
            <mxPoint x="520" y="-500" as="targetPoint" />
            <Array as="points" />
          </mxGeometry>
        </mxCell>
        <mxCell id="OehUyQWU7BfFM26jKCi--11" value="" style="edgeStyle=none;orthogonalLoop=1;jettySize=auto;html=1;rounded=0;sketch=0;hachureGap=4;fontFamily=Architects Daughter;fontSource=https%3A%2F%2Ffonts.googleapis.com%2Fcss%3Ffamily%3DArchitects%2BDaughter;fontSize=16;endArrow=none;startSize=14;endSize=14;sourcePerimeterSpacing=8;targetPerimeterSpacing=8;curved=1;strokeColor=#36393d;endFill=0;fillColor=#cdeb8b;" edge="1" parent="1">
          <mxGeometry width="120" relative="1" as="geometry">
            <mxPoint x="280" y="-480" as="sourcePoint" />
            <mxPoint x="520" y="-480" as="targetPoint" />
            <Array as="points" />
          </mxGeometry>
        </mxCell>
        <mxCell id="OehUyQWU7BfFM26jKCi--12" value="" style="edgeStyle=none;orthogonalLoop=1;jettySize=auto;html=1;rounded=0;sketch=0;hachureGap=4;fontFamily=Architects Daughter;fontSource=https%3A%2F%2Ffonts.googleapis.com%2Fcss%3Ffamily%3DArchitects%2BDaughter;fontSize=16;endArrow=none;startSize=14;endSize=14;sourcePerimeterSpacing=8;targetPerimeterSpacing=8;curved=1;strokeColor=#36393d;endFill=0;fillColor=#cdeb8b;" edge="1" parent="1">
          <mxGeometry width="120" relative="1" as="geometry">
            <mxPoint x="280" y="-460" as="sourcePoint" />
            <mxPoint x="520" y="-460" as="targetPoint" />
            <Array as="points" />
          </mxGeometry>
        </mxCell>
        <mxCell id="OehUyQWU7BfFM26jKCi--13" value="" style="edgeStyle=none;orthogonalLoop=1;jettySize=auto;html=1;rounded=0;sketch=0;hachureGap=4;fontFamily=Architects Daughter;fontSource=https%3A%2F%2Ffonts.googleapis.com%2Fcss%3Ffamily%3DArchitects%2BDaughter;fontSize=16;endArrow=none;startSize=14;endSize=14;sourcePerimeterSpacing=8;targetPerimeterSpacing=8;curved=1;strokeColor=#36393d;endFill=0;fillColor=#cdeb8b;" edge="1" parent="1">
          <mxGeometry width="120" relative="1" as="geometry">
            <mxPoint x="280" y="-440" as="sourcePoint" />
            <mxPoint x="520" y="-440" as="targetPoint" />
            <Array as="points" />
          </mxGeometry>
        </mxCell>
        <mxCell id="OehUyQWU7BfFM26jKCi--32" value="" style="rounded=0;whiteSpace=wrap;html=1;sketch=0;hachureGap=4;pointerEvents=0;fontFamily=Architects Daughter;fontSource=https%3A%2F%2Ffonts.googleapis.com%2Fcss%3Ffamily%3DArchitects%2BDaughter;fontSize=20;fillColor=#cce5ff;strokeColor=#36393d;" vertex="1" parent="1">
          <mxGeometry x="280" y="-420" width="240" height="100" as="geometry" />
        </mxCell>
        <mxCell id="OehUyQWU7BfFM26jKCi--33" value="" style="edgeStyle=none;orthogonalLoop=1;jettySize=auto;html=1;rounded=0;sketch=0;hachureGap=4;fontFamily=Architects Daughter;fontSource=https%3A%2F%2Ffonts.googleapis.com%2Fcss%3Ffamily%3DArchitects%2BDaughter;fontSize=16;endArrow=none;startSize=14;endSize=14;sourcePerimeterSpacing=8;targetPerimeterSpacing=8;curved=1;strokeColor=#36393d;endFill=0;fillColor=#cce5ff;" edge="1" parent="1">
          <mxGeometry width="120" relative="1" as="geometry">
            <mxPoint x="280" y="-400" as="sourcePoint" />
            <mxPoint x="520" y="-400" as="targetPoint" />
            <Array as="points" />
          </mxGeometry>
        </mxCell>
        <mxCell id="OehUyQWU7BfFM26jKCi--34" value="" style="edgeStyle=none;orthogonalLoop=1;jettySize=auto;html=1;rounded=0;sketch=0;hachureGap=4;fontFamily=Architects Daughter;fontSource=https%3A%2F%2Ffonts.googleapis.com%2Fcss%3Ffamily%3DArchitects%2BDaughter;fontSize=16;endArrow=none;startSize=14;endSize=14;sourcePerimeterSpacing=8;targetPerimeterSpacing=8;curved=1;strokeColor=#36393d;endFill=0;fillColor=#cce5ff;" edge="1" parent="1">
          <mxGeometry width="120" relative="1" as="geometry">
            <mxPoint x="280" y="-380" as="sourcePoint" />
            <mxPoint x="520" y="-380" as="targetPoint" />
            <Array as="points" />
          </mxGeometry>
        </mxCell>
        <mxCell id="OehUyQWU7BfFM26jKCi--35" value="" style="edgeStyle=none;orthogonalLoop=1;jettySize=auto;html=1;rounded=0;sketch=0;hachureGap=4;fontFamily=Architects Daughter;fontSource=https%3A%2F%2Ffonts.googleapis.com%2Fcss%3Ffamily%3DArchitects%2BDaughter;fontSize=16;endArrow=none;startSize=14;endSize=14;sourcePerimeterSpacing=8;targetPerimeterSpacing=8;curved=1;strokeColor=#36393d;endFill=0;fillColor=#cce5ff;" edge="1" parent="1">
          <mxGeometry width="120" relative="1" as="geometry">
            <mxPoint x="280" y="-360" as="sourcePoint" />
            <mxPoint x="520" y="-360" as="targetPoint" />
            <Array as="points" />
          </mxGeometry>
        </mxCell>
        <mxCell id="OehUyQWU7BfFM26jKCi--36" value="" style="edgeStyle=none;orthogonalLoop=1;jettySize=auto;html=1;rounded=0;sketch=0;hachureGap=4;fontFamily=Architects Daughter;fontSource=https%3A%2F%2Ffonts.googleapis.com%2Fcss%3Ffamily%3DArchitects%2BDaughter;fontSize=16;endArrow=none;startSize=14;endSize=14;sourcePerimeterSpacing=8;targetPerimeterSpacing=8;curved=1;strokeColor=#36393d;endFill=0;fillColor=#cce5ff;" edge="1" parent="1">
          <mxGeometry width="120" relative="1" as="geometry">
            <mxPoint x="280" y="-340" as="sourcePoint" />
            <mxPoint x="520" y="-340" as="targetPoint" />
            <Array as="points" />
          </mxGeometry>
        </mxCell>
        <mxCell id="OehUyQWU7BfFM26jKCi--37" value="" style="rounded=0;whiteSpace=wrap;html=1;sketch=0;hachureGap=4;pointerEvents=0;fontFamily=Architects Daughter;fontSource=https%3A%2F%2Ffonts.googleapis.com%2Fcss%3Ffamily%3DArchitects%2BDaughter;fontSize=20;fillColor=#ffcccc;strokeColor=#36393d;" vertex="1" parent="1">
          <mxGeometry x="280" y="-320" width="240" height="100" as="geometry" />
        </mxCell>
        <mxCell id="OehUyQWU7BfFM26jKCi--38" value="" style="edgeStyle=none;orthogonalLoop=1;jettySize=auto;html=1;rounded=0;sketch=0;hachureGap=4;fontFamily=Architects Daughter;fontSource=https%3A%2F%2Ffonts.googleapis.com%2Fcss%3Ffamily%3DArchitects%2BDaughter;fontSize=16;endArrow=none;startSize=14;endSize=14;sourcePerimeterSpacing=8;targetPerimeterSpacing=8;curved=1;strokeColor=#36393d;endFill=0;fillColor=#ffcccc;" edge="1" parent="1">
          <mxGeometry width="120" relative="1" as="geometry">
            <mxPoint x="280" y="-299.9999999999999" as="sourcePoint" />
            <mxPoint x="520" y="-299.9999999999999" as="targetPoint" />
            <Array as="points" />
          </mxGeometry>
        </mxCell>
        <mxCell id="OehUyQWU7BfFM26jKCi--39" value="" style="edgeStyle=none;orthogonalLoop=1;jettySize=auto;html=1;rounded=0;sketch=0;hachureGap=4;fontFamily=Architects Daughter;fontSource=https%3A%2F%2Ffonts.googleapis.com%2Fcss%3Ffamily%3DArchitects%2BDaughter;fontSize=16;endArrow=none;startSize=14;endSize=14;sourcePerimeterSpacing=8;targetPerimeterSpacing=8;curved=1;strokeColor=#36393d;endFill=0;fillColor=#ffcccc;" edge="1" parent="1">
          <mxGeometry width="120" relative="1" as="geometry">
            <mxPoint x="280" y="-279.9999999999999" as="sourcePoint" />
            <mxPoint x="520" y="-279.9999999999999" as="targetPoint" />
            <Array as="points" />
          </mxGeometry>
        </mxCell>
        <mxCell id="OehUyQWU7BfFM26jKCi--40" value="" style="edgeStyle=none;orthogonalLoop=1;jettySize=auto;html=1;rounded=0;sketch=0;hachureGap=4;fontFamily=Architects Daughter;fontSource=https%3A%2F%2Ffonts.googleapis.com%2Fcss%3Ffamily%3DArchitects%2BDaughter;fontSize=16;endArrow=none;startSize=14;endSize=14;sourcePerimeterSpacing=8;targetPerimeterSpacing=8;curved=1;strokeColor=#36393d;endFill=0;fillColor=#ffcccc;" edge="1" parent="1">
          <mxGeometry width="120" relative="1" as="geometry">
            <mxPoint x="280" y="-259.9999999999999" as="sourcePoint" />
            <mxPoint x="520" y="-259.9999999999999" as="targetPoint" />
            <Array as="points" />
          </mxGeometry>
        </mxCell>
        <mxCell id="OehUyQWU7BfFM26jKCi--41" value="" style="edgeStyle=none;orthogonalLoop=1;jettySize=auto;html=1;rounded=0;sketch=0;hachureGap=4;fontFamily=Architects Daughter;fontSource=https%3A%2F%2Ffonts.googleapis.com%2Fcss%3Ffamily%3DArchitects%2BDaughter;fontSize=16;endArrow=none;startSize=14;endSize=14;sourcePerimeterSpacing=8;targetPerimeterSpacing=8;curved=1;strokeColor=#36393d;endFill=0;fillColor=#ffcccc;" edge="1" parent="1">
          <mxGeometry width="120" relative="1" as="geometry">
            <mxPoint x="280" y="-239.9999999999999" as="sourcePoint" />
            <mxPoint x="520" y="-239.9999999999999" as="targetPoint" />
            <Array as="points" />
          </mxGeometry>
        </mxCell>
        <mxCell id="OehUyQWU7BfFM26jKCi--42" value="&lt;font style=&quot;font-size: 14px&quot; face=&quot;Verdana&quot;&gt;[0 , 0]&lt;/font&gt;" style="text;strokeColor=none;fillColor=none;html=1;align=center;verticalAlign=middle;whiteSpace=wrap;rounded=0;sketch=0;hachureGap=4;pointerEvents=0;fontFamily=Architects Daughter;fontSource=https%3A%2F%2Ffonts.googleapis.com%2Fcss%3Ffamily%3DArchitects%2BDaughter;fontSize=20;fontStyle=1" vertex="1" parent="1">
          <mxGeometry x="520" y="-520" width="80" height="20" as="geometry" />
        </mxCell>
        <mxCell id="OehUyQWU7BfFM26jKCi--44" value="&lt;font style=&quot;font-size: 14px ; line-height: 1.45&quot;&gt;1&lt;br&gt;0&lt;br&gt;4&lt;br&gt;0&lt;br&gt;0&lt;/font&gt;" style="text;strokeColor=none;fillColor=none;html=1;align=center;verticalAlign=middle;whiteSpace=wrap;rounded=0;sketch=0;hachureGap=4;pointerEvents=0;fontFamily=Verdana;fontSize=14;" vertex="1" parent="1">
          <mxGeometry x="370" y="-520" width="60" height="100" as="geometry" />
        </mxCell>
        <mxCell id="OehUyQWU7BfFM26jKCi--45" value="&lt;font style=&quot;font-size: 14px ; line-height: 1.45&quot;&gt;0&lt;br&gt;2&lt;br&gt;0&lt;br&gt;1&lt;br&gt;0&lt;/font&gt;" style="text;strokeColor=none;fillColor=none;html=1;align=center;verticalAlign=middle;whiteSpace=wrap;rounded=0;sketch=0;hachureGap=4;pointerEvents=0;fontFamily=Verdana;fontSize=14;" vertex="1" parent="1">
          <mxGeometry x="370" y="-420" width="60" height="100" as="geometry" />
        </mxCell>
        <mxCell id="OehUyQWU7BfFM26jKCi--47" value="&lt;font style=&quot;font-size: 14px ; line-height: 1.45&quot;&gt;4&lt;br&gt;0&lt;br&gt;1&lt;br&gt;0&lt;br&gt;0&lt;/font&gt;" style="text;strokeColor=none;fillColor=none;html=1;align=center;verticalAlign=middle;whiteSpace=wrap;rounded=0;sketch=0;hachureGap=4;pointerEvents=0;fontFamily=Verdana;fontSize=14;" vertex="1" parent="1">
          <mxGeometry x="370" y="-320" width="60" height="100" as="geometry" />
        </mxCell>
        <mxCell id="OehUyQWU7BfFM26jKCi--48" value="&lt;font style=&quot;font-size: 14px&quot; face=&quot;Verdana&quot;&gt;[1 , 0]&lt;/font&gt;" style="text;strokeColor=none;fillColor=none;html=1;align=center;verticalAlign=middle;whiteSpace=wrap;rounded=0;sketch=0;hachureGap=4;pointerEvents=0;fontFamily=Architects Daughter;fontSource=https%3A%2F%2Ffonts.googleapis.com%2Fcss%3Ffamily%3DArchitects%2BDaughter;fontSize=20;fontStyle=1" vertex="1" parent="1">
          <mxGeometry x="520" y="-500" width="80" height="20" as="geometry" />
        </mxCell>
        <mxCell id="OehUyQWU7BfFM26jKCi--49" value="&lt;font style=&quot;font-size: 14px&quot; face=&quot;Verdana&quot;&gt;[2 , 0]&lt;/font&gt;" style="text;strokeColor=none;fillColor=none;html=1;align=center;verticalAlign=middle;whiteSpace=wrap;rounded=0;sketch=0;hachureGap=4;pointerEvents=0;fontFamily=Architects Daughter;fontSource=https%3A%2F%2Ffonts.googleapis.com%2Fcss%3Ffamily%3DArchitects%2BDaughter;fontSize=20;fontStyle=1" vertex="1" parent="1">
          <mxGeometry x="520" y="-480" width="80" height="20" as="geometry" />
        </mxCell>
        <mxCell id="OehUyQWU7BfFM26jKCi--50" value="&lt;font style=&quot;font-size: 14px&quot; face=&quot;Verdana&quot;&gt;[3 , 0]&lt;/font&gt;" style="text;strokeColor=none;fillColor=none;html=1;align=center;verticalAlign=middle;whiteSpace=wrap;rounded=0;sketch=0;hachureGap=4;pointerEvents=0;fontFamily=Architects Daughter;fontSource=https%3A%2F%2Ffonts.googleapis.com%2Fcss%3Ffamily%3DArchitects%2BDaughter;fontSize=20;fontStyle=1" vertex="1" parent="1">
          <mxGeometry x="520" y="-460" width="80" height="20" as="geometry" />
        </mxCell>
        <mxCell id="OehUyQWU7BfFM26jKCi--51" value="&lt;font style=&quot;font-size: 14px&quot; face=&quot;Verdana&quot;&gt;[4 , 0]&lt;/font&gt;" style="text;strokeColor=none;fillColor=none;html=1;align=center;verticalAlign=middle;whiteSpace=wrap;rounded=0;sketch=0;hachureGap=4;pointerEvents=0;fontFamily=Architects Daughter;fontSource=https%3A%2F%2Ffonts.googleapis.com%2Fcss%3Ffamily%3DArchitects%2BDaughter;fontSize=20;fontStyle=1" vertex="1" parent="1">
          <mxGeometry x="520" y="-440" width="80" height="20" as="geometry" />
        </mxCell>
        <mxCell id="OehUyQWU7BfFM26jKCi--53" value="&lt;font style=&quot;font-size: 14px&quot; face=&quot;Verdana&quot;&gt;[0 , 1]&lt;/font&gt;" style="text;strokeColor=none;fillColor=none;html=1;align=center;verticalAlign=middle;whiteSpace=wrap;rounded=0;sketch=0;hachureGap=4;pointerEvents=0;fontFamily=Architects Daughter;fontSource=https%3A%2F%2Ffonts.googleapis.com%2Fcss%3Ffamily%3DArchitects%2BDaughter;fontSize=20;fontStyle=1" vertex="1" parent="1">
          <mxGeometry x="520" y="-420" width="80" height="20" as="geometry" />
        </mxCell>
        <mxCell id="OehUyQWU7BfFM26jKCi--54" value="&lt;font style=&quot;font-size: 14px&quot; face=&quot;Verdana&quot;&gt;[1 , 1]&lt;/font&gt;" style="text;strokeColor=none;fillColor=none;html=1;align=center;verticalAlign=middle;whiteSpace=wrap;rounded=0;sketch=0;hachureGap=4;pointerEvents=0;fontFamily=Architects Daughter;fontSource=https%3A%2F%2Ffonts.googleapis.com%2Fcss%3Ffamily%3DArchitects%2BDaughter;fontSize=20;fontStyle=1" vertex="1" parent="1">
          <mxGeometry x="520" y="-400" width="80" height="20" as="geometry" />
        </mxCell>
        <mxCell id="OehUyQWU7BfFM26jKCi--55" value="&lt;font style=&quot;font-size: 14px&quot; face=&quot;Verdana&quot;&gt;[2 , 1]&lt;/font&gt;" style="text;strokeColor=none;fillColor=none;html=1;align=center;verticalAlign=middle;whiteSpace=wrap;rounded=0;sketch=0;hachureGap=4;pointerEvents=0;fontFamily=Architects Daughter;fontSource=https%3A%2F%2Ffonts.googleapis.com%2Fcss%3Ffamily%3DArchitects%2BDaughter;fontSize=20;fontStyle=1" vertex="1" parent="1">
          <mxGeometry x="520" y="-380" width="80" height="20" as="geometry" />
        </mxCell>
        <mxCell id="OehUyQWU7BfFM26jKCi--56" value="&lt;font style=&quot;font-size: 14px&quot; face=&quot;Verdana&quot;&gt;[3 , 1]&lt;/font&gt;" style="text;strokeColor=none;fillColor=none;html=1;align=center;verticalAlign=middle;whiteSpace=wrap;rounded=0;sketch=0;hachureGap=4;pointerEvents=0;fontFamily=Architects Daughter;fontSource=https%3A%2F%2Ffonts.googleapis.com%2Fcss%3Ffamily%3DArchitects%2BDaughter;fontSize=20;fontStyle=1" vertex="1" parent="1">
          <mxGeometry x="520" y="-360" width="80" height="20" as="geometry" />
        </mxCell>
        <mxCell id="OehUyQWU7BfFM26jKCi--57" value="&lt;font style=&quot;font-size: 14px&quot; face=&quot;Verdana&quot;&gt;[4 , 1]&lt;/font&gt;" style="text;strokeColor=none;fillColor=none;html=1;align=center;verticalAlign=middle;whiteSpace=wrap;rounded=0;sketch=0;hachureGap=4;pointerEvents=0;fontFamily=Architects Daughter;fontSource=https%3A%2F%2Ffonts.googleapis.com%2Fcss%3Ffamily%3DArchitects%2BDaughter;fontSize=20;fontStyle=1" vertex="1" parent="1">
          <mxGeometry x="520" y="-340" width="80" height="20" as="geometry" />
        </mxCell>
        <mxCell id="OehUyQWU7BfFM26jKCi--58" value="&lt;font style=&quot;font-size: 14px&quot; face=&quot;Verdana&quot;&gt;[0 , 2]&lt;/font&gt;" style="text;strokeColor=none;fillColor=none;html=1;align=center;verticalAlign=middle;whiteSpace=wrap;rounded=0;sketch=0;hachureGap=4;pointerEvents=0;fontFamily=Architects Daughter;fontSource=https%3A%2F%2Ffonts.googleapis.com%2Fcss%3Ffamily%3DArchitects%2BDaughter;fontSize=20;fontStyle=1" vertex="1" parent="1">
          <mxGeometry x="520" y="-320" width="80" height="20" as="geometry" />
        </mxCell>
        <mxCell id="OehUyQWU7BfFM26jKCi--59" value="&lt;font style=&quot;font-size: 14px&quot; face=&quot;Verdana&quot;&gt;[1 , 2]&lt;/font&gt;" style="text;strokeColor=none;fillColor=none;html=1;align=center;verticalAlign=middle;whiteSpace=wrap;rounded=0;sketch=0;hachureGap=4;pointerEvents=0;fontFamily=Architects Daughter;fontSource=https%3A%2F%2Ffonts.googleapis.com%2Fcss%3Ffamily%3DArchitects%2BDaughter;fontSize=20;fontStyle=1" vertex="1" parent="1">
          <mxGeometry x="520" y="-300" width="80" height="20" as="geometry" />
        </mxCell>
        <mxCell id="OehUyQWU7BfFM26jKCi--60" value="&lt;font style=&quot;font-size: 14px&quot; face=&quot;Verdana&quot;&gt;[2 , 2]&lt;/font&gt;" style="text;strokeColor=none;fillColor=none;html=1;align=center;verticalAlign=middle;whiteSpace=wrap;rounded=0;sketch=0;hachureGap=4;pointerEvents=0;fontFamily=Architects Daughter;fontSource=https%3A%2F%2Ffonts.googleapis.com%2Fcss%3Ffamily%3DArchitects%2BDaughter;fontSize=20;fontStyle=1" vertex="1" parent="1">
          <mxGeometry x="520" y="-280" width="80" height="20" as="geometry" />
        </mxCell>
        <mxCell id="OehUyQWU7BfFM26jKCi--61" value="&lt;font style=&quot;font-size: 14px&quot; face=&quot;Verdana&quot;&gt;[3 , 2]&lt;/font&gt;" style="text;strokeColor=none;fillColor=none;html=1;align=center;verticalAlign=middle;whiteSpace=wrap;rounded=0;sketch=0;hachureGap=4;pointerEvents=0;fontFamily=Architects Daughter;fontSource=https%3A%2F%2Ffonts.googleapis.com%2Fcss%3Ffamily%3DArchitects%2BDaughter;fontSize=20;fontStyle=1" vertex="1" parent="1">
          <mxGeometry x="520" y="-260" width="80" height="20" as="geometry" />
        </mxCell>
        <mxCell id="OehUyQWU7BfFM26jKCi--62" value="&lt;font style=&quot;font-size: 14px&quot; face=&quot;Verdana&quot;&gt;[4 , 2]&lt;/font&gt;" style="text;strokeColor=none;fillColor=none;html=1;align=center;verticalAlign=middle;whiteSpace=wrap;rounded=0;sketch=0;hachureGap=4;pointerEvents=0;fontFamily=Architects Daughter;fontSource=https%3A%2F%2Ffonts.googleapis.com%2Fcss%3Ffamily%3DArchitects%2BDaughter;fontSize=20;fontStyle=1" vertex="1" parent="1">
          <mxGeometry x="520" y="-240" width="80" height="20" as="geometry" />
        </mxCell>
        <mxCell id="OehUyQWU7BfFM26jKCi--63" value="" style="edgeStyle=none;orthogonalLoop=1;jettySize=auto;html=1;rounded=0;sketch=0;hachureGap=4;fontFamily=Verdana;fontSize=14;endArrow=none;endFill=0;startSize=14;endSize=14;sourcePerimeterSpacing=8;targetPerimeterSpacing=8;strokeColor=default;entryX=1;entryY=0.5;entryDx=0;entryDy=0;" edge="1" parent="1" target="OehUyQWU7BfFM26jKCi--51">
          <mxGeometry width="120" relative="1" as="geometry">
            <mxPoint x="600" y="-510" as="sourcePoint" />
            <mxPoint x="710" y="-510.29" as="targetPoint" />
            <Array as="points">
              <mxPoint x="620" y="-510" />
              <mxPoint x="620" y="-430" />
            </Array>
          </mxGeometry>
        </mxCell>
        <mxCell id="OehUyQWU7BfFM26jKCi--64" value="" style="edgeStyle=none;orthogonalLoop=1;jettySize=auto;html=1;rounded=0;sketch=0;hachureGap=4;fontFamily=Verdana;fontSize=14;endArrow=none;endFill=0;startSize=14;endSize=14;sourcePerimeterSpacing=8;targetPerimeterSpacing=8;strokeColor=default;entryX=1;entryY=0.5;entryDx=0;entryDy=0;" edge="1" parent="1">
          <mxGeometry width="120" relative="1" as="geometry">
            <mxPoint x="600" y="-410" as="sourcePoint" />
            <mxPoint x="600" y="-330" as="targetPoint" />
            <Array as="points">
              <mxPoint x="620" y="-410" />
              <mxPoint x="620" y="-330" />
            </Array>
          </mxGeometry>
        </mxCell>
        <mxCell id="OehUyQWU7BfFM26jKCi--65" value="" style="edgeStyle=none;orthogonalLoop=1;jettySize=auto;html=1;rounded=0;sketch=0;hachureGap=4;fontFamily=Verdana;fontSize=14;endArrow=none;endFill=0;startSize=14;endSize=14;sourcePerimeterSpacing=8;targetPerimeterSpacing=8;strokeColor=default;entryX=1;entryY=0.5;entryDx=0;entryDy=0;" edge="1" parent="1">
          <mxGeometry width="120" relative="1" as="geometry">
            <mxPoint x="600" y="-310" as="sourcePoint" />
            <mxPoint x="600" y="-230" as="targetPoint" />
            <Array as="points">
              <mxPoint x="620" y="-310" />
              <mxPoint x="620" y="-230" />
            </Array>
          </mxGeometry>
        </mxCell>
        <mxCell id="OehUyQWU7BfFM26jKCi--66" value="0 열" style="text;strokeColor=none;fillColor=none;html=1;align=center;verticalAlign=middle;whiteSpace=wrap;rounded=0;sketch=0;hachureGap=4;pointerEvents=0;fontFamily=Verdana;fontSize=14;fontStyle=1" vertex="1" parent="1">
          <mxGeometry x="630" y="-480" width="40" height="20" as="geometry" />
        </mxCell>
        <mxCell id="OehUyQWU7BfFM26jKCi--67" value="1 열" style="text;strokeColor=none;fillColor=none;html=1;align=center;verticalAlign=middle;whiteSpace=wrap;rounded=0;sketch=0;hachureGap=4;pointerEvents=0;fontFamily=Verdana;fontSize=14;fontStyle=1" vertex="1" parent="1">
          <mxGeometry x="630" y="-380" width="40" height="20" as="geometry" />
        </mxCell>
        <mxCell id="OehUyQWU7BfFM26jKCi--68" value="2 열" style="text;strokeColor=none;fillColor=none;html=1;align=center;verticalAlign=middle;whiteSpace=wrap;rounded=0;sketch=0;hachureGap=4;pointerEvents=0;fontFamily=Verdana;fontSize=14;fontStyle=1" vertex="1" parent="1">
          <mxGeometry x="630" y="-280" width="40" height="20" as="geometry" />
        </mxCell>
      </root>
    </mxGraphModel>
  </diagram>
</mxfile>
